# xmcd
#
# Track frame offsets:
#	150
#	22792
#	47435
#	72050
#	97345
#	129400
#	158365
#	179632
#	213655
#	249120
#	277292
#	315335
#
# Disc length: 4618 seconds
#
# Revision: 1
# Processed by: cddbd v1.5.1PL0 Copyright (c) Steve Scherf et al.
# Submitted via: audiograbber 1.83.01
#
DISCID=9e12080c
DTITLE=Bob Dylan - Down in the Flood
DYEAR=1900
DGENRE=Rock and Roll
TTITLE0=Down In The Flood
TTITLE1=Senor
TTITLE2=All Along The Watchtower
TTITLE3=Just Like A Woman
TTITLE4=Tangled Up In Blue
TTITLE5=Mister Tambourine Man
TTITLE6=Master Of War
TTITLE7=Boots Of Spanish Leather
TTITLE8=Memphis Blues Again
TTITLE9=I Shall Be Released
TTITLE10=Highway
TTITLE11=Like A Rolling Stone
EXTD=
EXTT0=
EXTT1=
EXTT2=
EXTT3=
EXTT4=
EXTT5=
EXTT6=
EXTT7=
EXTT8=
EXTT9=
EXTT10=
EXTT11=
PLAYORDER=
